<?xml version="1.0" encoding="UTF-8"?>
<svg id="Layer_2" data-name="Layer 2" xmlns="http://www.w3.org/2000/svg" viewBox="0 0 141.33 51.57">
  <defs>
    <style>
      .cls-1 {
        fill: #fff;
      }
    </style>
  </defs>
  <g id="Layer_1-2" data-name="Layer 1">
    <g>
      <path class="cls-1" d="M50.54,31.22h3.22c1.56.16,2.35.65,2.35,1.44,0,.52-.57.77-1.72.77l-2.28-.14-3.29.03-7.16,9.09c-4.85,6.04-7.53,9.05-8.04,9.05-.46,0-.88-.34-1.26-1.01-.36-.58-.54-1.11-.54-1.6,0-.73,3.99-5.91,11.97-15.54h-2.74c-3.82.02-9.51.23-17.07.64l-11.88,10.14-4.61,4.12c-2.48,2.16-4,3.24-4.54,3.24-.66,0-.98-.34-.98-1.02,0-.84,3.39-4.09,10.16-9.72l8.05-6.69c-10.76.52-16.31,1.05-16.66,1.62v.04c0,.45,1.68.67,5.03.67l4.71-.07c.63-.02.95.12.95.42,0,.66-2.55.98-7.66.98-4.36,0-6.54-.55-6.54-1.65,0-1.41,1.29-2.37,3.87-2.88.73-.16,2.53-.34,5.41-.53l13.71-.91c5.53-4.58,13.44-10.51,23.73-17.81C59.82,4.63,67.64,0,70.17,0c1.27,0,1.9.82,1.9,2.46,0,1.38-1.65,4.13-4.95,8.23l-16.58,20.52ZM45.51,31.22l16.47-20.03,3.06-3.73c1.31-1.67,2.18-2.94,2.6-3.84l.05-.14c0-.26-.12-.39-.35-.39-1.1,0-8.07,4.69-20.91,14.08l-19.33,14.36,18.41-.32Z"/>
      <path class="cls-1" d="M67.22,35.75l-11.21,9.28c-5.65,4.29-9.61,6.43-11.88,6.43-.28,0-.42-.16-.42-.47,0-.41.23-.67.7-.79,1.71-.42,3.04-.89,3.97-1.4,1.48-.77,4.57-3.03,9.28-6.77,2.13-1.66,5.2-4.3,9.21-7.93,1.5-1.57,2.58-2.35,3.23-2.35,1.31,0,1.97.42,1.97,1.27,0,1.08-1.32,3.32-3.97,6.71,5.11-4.69,8.64-7.03,10.58-7.03.66,0,1.25.21,1.79.62s.81.93.81,1.56c0,.94-.63,2.31-1.9,4.11,4.73-4.66,8.46-7,11.18-7,1.57,0,2.36.63,2.36,1.9,0,1.64-1.92,4.43-5.77,8.37s-5.77,6.3-5.77,7.1c0,.61.41.92,1.23.93s1.23.21,1.23.58c0,.47-.68.7-2.05.7-1.84,0-2.76-.81-2.76-2.43,0-1.83,1.68-4.65,5.03-8.46s5.03-5.94,5.03-6.38c0-.28-.18-.42-.53-.42-1.41,0-4.48,2.21-9.21,6.64-3.91,3.66-6.8,6.62-8.65,8.89-1.12,1.41-1.96,2.11-2.5,2.11-.91,0-1.37-.42-1.37-1.27s1.84-3.35,5.52-7.45,5.52-6.63,5.52-7.59c0-.42-.23-.63-.7-.63-1.22,0-4,2.04-8.33,6.12-3.73,3.52-6.35,6.26-7.88,8.23-1.2,1.55-2.24,2.32-3.13,2.32-.8,0-1.2-.35-1.2-1.05,0-.89,1.63-3.36,4.89-7.42l5.7-7.03Z"/>
      <path class="cls-1" d="M99.84,49.33c0,.63.69.95,2.07.95.31,0,.46.19.46.58,0,.46-.78.69-2.34.69-1.77,0-2.66-.84-2.66-2.53,0-1.97,2.61-6.08,7.84-12.34l-9.6,7.84c-5.67,4.64-9.79,6.96-12.34,6.96-.28,0-.42-.16-.42-.47,0-.43.23-.7.7-.79,1.48-.28,2.82-.76,4.04-1.44,1.52-.84,4.76-3.21,9.7-7.12l10.76-9.02c.47-.16,1.1-.25,1.9-.25s1.2.46,1.2,1.37c0,.98-1.89,3.63-5.66,7.95-3.77,4.32-5.66,6.86-5.66,7.63Z"/>
      <path class="cls-1" d="M125.26,40.82c6.45-5.46,10.97-8.19,13.57-8.19,1.66,0,2.5.79,2.5,2.36,0,1.38-1.89,3.88-5.66,7.51s-5.66,5.81-5.66,6.56.43,1.15,1.28,1.21,1.28.26,1.28.62c0,.47-.85.7-2.55.7-1.96,0-2.94-.87-2.94-2.61,0-1.46.94-3.3,2.81-5.53.96-1.15,2.7-2.92,5.2-5.32,1.88-1.79,2.81-2.87,2.81-3.24,0-.3-.21-.46-.63-.46-1.34,0-4.24,1.79-8.72,5.36-3.73,2.96-6.49,5.39-8.3,7.29-2.3,2.42-3.69,3.63-4.18,3.63-.38,0-.71-.18-1.02-.54s-.46-.74-.46-1.14c0-.54,1.62-2.72,4.85-6.54l5.8-6.86-9,7.31-6.64,5.1c-3.38,2.3-5.96,3.45-7.77,3.45-.3,0-.46-.14-.46-.42,0-.42.33-.7.98-.84.89-.16,1.93-.52,3.13-1.05,1.71-.75,5.2-3.26,10.48-7.52,4.73-3.84,8.14-6.79,10.23-8.82.35-.35.9-.77,1.65-1.27.38-.14.77-.21,1.2-.21.4,0,.8.14,1.21.4s.62.59.62.97c0,.42-1.88,3.13-5.62,8.12Z"/>
    </g>
    <path class="cls-1" d="M112.63,19.89c2.76.93,4.24,3.87,3.33,6.57s-3.88,4.13-6.64,3.2c-.52-.18-.99-.43-1.41-.72,2.38.7,5.28-.99,6.02-3.18.75-2.2-.45-5.17-2.86-6.16.52.02,1.05.11,1.56.29Z"/>
  </g>
</svg>