<svg width="46" height="45" viewBox="0 0 46 45" fill="none" xmlns="http://www.w3.org/2000/svg">
<path d="M41.3509 22.5H30.0734L26.3143 28.125H18.7959L15.0368 22.5H3.75928" stroke="white" stroke-width="4" stroke-linecap="round" stroke-linejoin="round"/>
<path d="M10.2438 9.58125L3.75928 22.5V33.75C3.75928 34.7446 4.15533 35.6984 4.86031 36.4016C5.56529 37.1049 6.52145 37.5 7.51844 37.5H37.5918C38.5888 37.5 39.5449 37.1049 40.2499 36.4016C40.9549 35.6984 41.3509 34.7446 41.3509 33.75V22.5L34.8664 9.58125C34.5552 8.95648 34.0754 8.4307 33.481 8.06302C32.8867 7.69535 32.2013 7.50037 31.5019 7.5H13.6083C12.9089 7.50037 12.2235 7.69535 11.6292 8.06302C11.0348 8.4307 10.5551 8.95648 10.2438 9.58125Z" stroke="white" stroke-width="4" stroke-linecap="round" stroke-linejoin="round"/>
</svg>
