<svg width="46" height="46" viewBox="0 0 46 46" fill="none" xmlns="http://www.w3.org/2000/svg">
<path d="M17.1399 43.75C19.003 43.75 20.5196 42.2425 20.5196 40.375C20.5196 38.5075 19.003 37 17.1399 37C15.2769 37 13.7603 38.5075 13.7603 40.375C13.7603 42.2425 15.2769 43.75 17.1399 43.75Z" stroke="white" stroke-width="3" stroke-linecap="round" stroke-linejoin="round"/>
<path d="M37.8165 43.75C39.6795 43.75 41.1962 42.2425 41.1962 40.375C41.1962 38.5075 39.6795 37 37.8165 37C35.9534 37 34.4368 38.5075 34.4368 40.375C34.4368 42.2425 35.9534 43.75 37.8165 43.75Z" stroke="white" stroke-width="3" stroke-linecap="round" stroke-linejoin="round"/>
<path d="M2.10229 2.875H9.62106L14.6586 27.9813C14.8305 28.8445 15.3013 29.6199 15.9886 30.1718C16.6759 30.7237 17.5359 31.0169 18.418 31H36.6886C37.5708 31.0169 38.4307 30.7237 39.118 30.1718C39.8053 29.6199 40.2761 28.8445 40.448 27.9813L43.4555 12.25H11.5008" stroke="white" stroke-width="4" stroke-linecap="round" stroke-linejoin="round"/>
</svg>
