<svg width="12" height="17" viewBox="0 0 12 17" fill="none" xmlns="http://www.w3.org/2000/svg">
<path fill-rule="evenodd" clip-rule="evenodd" d="M8.856 11.686L8.756 11.936C6.96723 12.5334 5.03277 12.5334 3.244 11.936L3.144 11.686C3.049 11.456 3.001 11.34 2.918 11.234C2.836 11.127 2.692 11.019 2.404 10.804C1.39559 10.049 0.650397 8.99575 0.274038 7.79356C-0.102322 6.59137 -0.0907509 5.30122 0.30711 4.10598C0.704971 2.91074 1.46894 1.87104 2.49072 1.13425C3.51251 0.397469 4.74028 0.000976563 6 0.000976562C7.25972 0.000976562 8.48749 0.397469 9.50928 1.13425C10.5311 1.87104 11.295 2.91074 11.6929 4.10598C12.0908 5.30122 12.1023 6.59137 11.726 7.79356C11.3496 8.99575 10.6044 10.049 9.596 10.804C9.308 11.019 9.164 11.127 9.082 11.234C9 11.341 8.952 11.455 8.856 11.686ZM3.85 14.166C3.93667 14.694 3.986 15.2266 3.998 15.764C3.99901 15.835 4.01938 15.9043 4.05692 15.9646C4.09445 16.0249 4.14773 16.0738 4.211 16.106C4.76646 16.3837 5.37896 16.5283 6 16.5283C6.62104 16.5283 7.23354 16.3837 7.789 16.106C7.85227 16.0738 7.90555 16.0249 7.94308 15.9646C7.98062 15.9043 8.00099 15.835 8.002 15.764C8.014 15.2266 8.06333 14.694 8.15 14.166C6.73143 14.4569 5.26857 14.4569 3.85 14.166Z" fill="white"/>
</svg>
